<svg width="32" height="32" viewBox="0 0 32 32" fill="none" xmlns="http://www.w3.org/2000/svg">
  <rect width="32" height="32" rx="6" fill="url(#paint0_linear)" />
  <path d="M7 21.5C7 19.0147 9.01472 17 11.5 17C13.9853 17 16 19.0147 16 21.5C16 23.9853 13.9853 26 11.5 26C9.01472 26 7 23.9853 7 21.5Z" fill="white"/>
  <path d="M16 11.5C16 9.01472 18.0147 7 20.5 7C22.9853 7 25 9.01472 25 11.5C25 13.9853 22.9853 16 20.5 16C18.0147 16 16 13.9853 16 11.5Z" fill="white"/>
  <path d="M9 9L23 23" stroke="white" stroke-width="2.5" stroke-linecap="round"/>
  <path d="M23 9L9 23" stroke="white" stroke-width="2.5" stroke-linecap="round"/>
  <defs>
    <linearGradient id="paint0_linear" x1="0" y1="0" x2="32" y2="32" gradientUnits="userSpaceOnUse">
      <stop stop-color="#6366F1"/>
      <stop offset="1" stop-color="#8B5CF6"/>
    </linearGradient>
  </defs>
</svg> 